<svg xmlns="http://www.w3.org/2000/svg" viewBox="0 0 512 512" role="img" aria-label="Shinobi Relays">
  <rect width="512" height="512" rx="96" fill="#050505"/>
  <circle cx="256" cy="256" r="178" fill="#101724" stroke="#58a6ff" stroke-width="18"/>
  <path d="M256 102c34 42 69 93 69 154 0 72-31 118-69 154-38-36-69-82-69-154 0-61 35-112 69-154Z" fill="#bc8cff"/>
  <path d="M256 130c-20 35-32 76-32 126 0 51 12 87 32 118 20-31 32-67 32-118 0-50-12-91-32-126Z" fill="#56d364"/>
  <path d="M256 76c-22 20-34 43-34 69h68c0-26-12-49-34-69Z" fill="#ffd166"/>
  <path d="M167 286c24 64 70 104 89 124 19-20 65-60 89-124" fill="none" stroke="#7cc7ff" stroke-width="18" stroke-linecap="round"/>
</svg>
